<svg id="Capa_1" enable-background="new 0 0 512 512" height="512" viewBox="0 0 512 512" width="512" xmlns="http://www.w3.org/2000/svg"><path d="m509.243 489.046c-42.952-54.751-103.054-94.473-169.817-112.381v-2.964c.187-.172.385-.344.571-.515.27-.219.525-.457.763-.711 19.368-18.124 29.188-35.632 29.188-52.043 0-.249-.001-.499-.004-.749 12.246-6.643 21.174-24.468 23.241-40.46 1.392-10.765-.721-19.352-6.281-25.52-4.636-5.144-11.517-8.338-20.451-9.492-9.983-1.29-17.052.713-22.035 3.942-1.072-4.896-1.613-9.903-1.613-14.98v-2.938c2.653-2.668 4.297-6.341 4.297-10.391v-19.337c0-5.343 4.232-9.752 9.635-10.04l.598-.035c30.62-1.933 55.085-27.473 55.696-58.145.451-22.638-11.643-43.178-31.608-53.767-.066-6.995-1.337-13.832-3.779-20.331-1.455-3.876-5.782-5.833-9.651-4.38-3.875 1.456-5.835 5.777-4.38 9.651 1.874 4.988 2.824 10.25 2.824 15.678-.002 5.246 2.881 9.995 7.522 12.393 15.198 7.853 24.427 23.356 24.087 40.458-.458 22.937-18.755 42.038-41.663 43.485l-.441.025c-13.362.71-23.829 11.695-23.829 25.007v19.092h-16.889c-4.139 0-7.494 3.355-7.494 7.494s3.355 7.494 7.494 7.494h12.627c.178 10.904 2.392 21.529 6.634 31.598 1.171 2.779 3.893 4.585 6.907 4.585h.021c3.022-.008 5.743-1.831 6.901-4.622 1.787-4.303 5.111-8.508 16.218-7.073 5.284.684 9.065 2.252 11.239 4.663 2.497 2.77 3.355 7.333 2.549 13.562-1.979 15.307-11.064 28.689-17.56 29.987-3.717.743-6.294 4.144-6.003 7.924.135 1.755.203 3.511.203 5.221 0 12.178-8.329 26.104-24.754 41.392-.005.004-.009.008-.013.012-.011.01-.021.02-.032.03-7.9 7.347-17.592 14.899-28.809 22.447-17.608 11.851-38.796 16.303-59.656 12.543-4.072-.732-7.971 1.972-8.705 6.045-.735 4.074 1.972 7.971 6.045 8.705 5.728 1.033 11.472 1.543 17.183 1.543 18.939 0 37.475-5.615 53.502-16.401 5.22-3.513 10.122-7.038 14.717-10.555v17.326c0 17.129-13.936 31.065-31.065 31.065h-74.582c-17.129 0-31.065-13.935-31.065-31.065v-17.325c4.595 3.517 9.496 7.041 14.717 10.555.999.672 2.006 1.323 3.023 1.954 1.23.764 2.595 1.127 3.943 1.127 2.507 0 4.957-1.258 6.376-3.545 2.182-3.517 1.1-8.137-2.418-10.319-.86-.534-1.712-1.085-2.556-1.653-11.217-7.55-20.91-15.102-28.809-22.447-.015-.014-.029-.027-.043-.041-16.426-15.287-24.754-29.214-24.754-41.392 0-1.721.068-3.477.203-5.217.293-3.781-2.285-7.185-6.004-7.928-6.496-1.298-15.582-14.679-17.561-29.987-1.504-11.638 2.362-16.748 13.789-18.226 11.114-1.434 14.433 2.769 16.218 7.073 1.158 2.791 3.88 4.614 6.902 4.622h.02c3.014 0 5.736-1.806 6.906-4.585 4.242-10.071 6.456-20.696 6.635-31.598h96.626c4.139 0 7.494-3.355 7.494-7.494s-3.355-7.494-7.494-7.494h-100.891v-19.092c0-13.312-10.467-24.297-23.827-25.007l-.449-.026c-22.901-1.446-41.198-20.547-41.655-43.484-.341-17.102 8.888-32.605 24.085-40.458 4.644-2.399 7.526-7.148 7.523-12.431 0-24.529 19.955-44.484 44.484-44.484 5.468 0 10.808.983 15.874 2.922 5.566 2.129 11.833.482 15.591-4.099 8.495-10.354 21.035-16.292 34.407-16.292s25.912 5.938 34.407 16.292c3.758 4.582 10.024 6.227 15.592 4.099 5.066-1.938 10.406-2.922 15.874-2.922 8.217 0 16.242 2.256 23.205 6.523 3.527 2.161 8.142 1.056 10.306-2.474 2.162-3.529 1.055-8.143-2.474-10.306-9.322-5.713-20.054-8.733-31.037-8.733-7.025 0-13.901 1.217-20.449 3.618-11.34-13.414-27.843-21.088-45.425-21.088-17.58 0-34.084 7.674-45.424 21.088-6.548-2.402-13.424-3.618-20.449-3.618-32.585 0-59.134 26.341-59.469 58.893-19.965 10.589-32.06 31.13-31.608 53.768.61 30.67 25.075 56.21 55.687 58.144l.606.035c5.403.287 9.636 4.697 9.636 10.04v19.337c0 4.051 1.644 7.725 4.298 10.392v2.937c0 5.076-.541 10.083-1.613 14.979-4.985-3.229-12.053-5.234-22.036-3.941-19.538 2.526-29.281 15.288-26.731 35.012 2.068 15.993 10.996 33.818 23.241 40.46-.002.25-.003.5-.003.749 0 16.412 9.82 33.92 29.189 52.044.222.236.46.457.711.663.202.187.418.375.622.562v2.921c-66.83 17.888-126.99 57.625-169.979 112.425-3.063 3.904-3.617 9.103-1.446 13.566 2.171 4.461 6.6 7.232 11.56 7.232h486.258c4.959 0 9.388-2.771 11.559-7.231 2.171-4.463 1.617-9.661-1.446-13.567zm-491.952 5.81c39.942-49.426 94.691-85.538 155.445-102.675v11.337c0 25.394 20.659 46.053 46.053 46.053h74.582c25.394 0 46.053-20.659 46.053-46.053v-11.292c60.689 17.155 115.38 53.25 155.284 102.63z"/><circle cx="300.499" cy="269.5" r="11.804"/><circle cx="211.662" cy="269.5" r="11.804"/><path d="m194.578 306.464c-3.659-.526-7.309 1.142-9.306 4.252-2.003 3.12-1.999 7.15.01 10.265 9.57 14.843 25.808 23.705 43.438 23.705 2.777 0 5.509-.231 8.197-.658 3.229 6.031 10.589 10.249 19.163 10.249s15.934-4.218 19.163-10.249c2.687.427 5.42.658 8.196.658 17.63 0 33.869-8.862 43.44-23.707 2.008-3.116 2.011-7.146.008-10.265-1.998-3.109-5.642-4.775-9.305-4.25-1.726.249-3.485.376-5.226.376-8.861 0-17.414-3.204-24.085-9.021-7.621-6.646-18.42-8.099-27.515-3.7-1.681.813-3.247 1.79-4.678 2.914-1.432-1.124-2.997-2.1-4.678-2.914-9.094-4.398-19.895-2.946-27.515 3.7-6.67 5.817-15.223 9.021-24.084 9.021-1.738 0-3.497-.126-5.223-.376zm39.162 2.651c3.088-2.692 7.459-3.282 11.136-1.503 2.027.981 3.566 2.448 4.575 4.361 1.297 2.46 3.849 3.998 6.63 3.998s5.332-1.54 6.629-3.999c1.008-1.913 2.547-3.38 4.575-4.361 3.677-1.778 8.049-1.191 11.136 1.503 7.935 6.92 17.757 11.216 28.135 12.387-6.442 5.245-14.549 8.196-23.117 8.196-5.779 0-11.306-1.305-16.425-3.876-1.905-.957-3.358-2.358-4.316-4.162-1.301-2.447-3.847-3.977-6.618-3.977-2.772 0-5.317 1.53-6.618 3.977-.959 1.805-2.411 3.205-4.316 4.162-5.12 2.573-10.647 3.877-16.426 3.877-8.567 0-16.674-2.95-23.116-8.196 10.378-1.171 20.201-5.467 28.136-12.387z"/></svg>